<?xml version="1.0" standalone="no"?>
<!DOCTYPE svg PUBLIC "-//W3C//DTD SVG 20010904//EN"
 "http://www.w3.org/TR/2001/REC-SVG-20010904/DTD/svg10.dtd">
<svg version="1.0" xmlns="http://www.w3.org/2000/svg"
 width="140.000000pt" height="140.000000pt" viewBox="0 0 140.000000 140.000000"
 preserveAspectRatio="xMidYMid meet">
<metadata>
Created by potrace 1.11, written by Peter Selinger 2001-2013
</metadata>
<g transform="translate(0.000000,140.000000) scale(0.100000,-0.100000)"
fill="#000000" stroke="none">
<path d="M0 700 l0 -700 700 0 700 0 0 700 0 700 -700 0 -700 0 0 -700z m915
343 c193 -104 193 -373 0 -476 -35 -19 -59 -22 -203 -25 l-162 -4 6 -104 7
-104 -112 0 -111 0 0 371 0 370 268 -3 c252 -3 269 -4 307 -25z"/>
<path d="M670 845 c-48 -49 -38 -49 -112 0 l-28 17 0 -56 0 -56 190 0 190 0 0
55 0 56 -46 -32 -46 -31 -47 46 c-26 25 -49 46 -52 46 -3 0 -25 -20 -49 -45z"/>
</g>
</svg>
