<svg xmlns="http://www.w3.org/2000/svg" width="234.748" height="56" viewBox="0 0 234.748 56">
  <g id="svgexport-0" transform="translate(-94.351 -190.268)">
    <path id="Path_10" data-name="Path 10" d="M190.261,302.919l6.7.011a7,7,0,0,1,2.187.306,3.569,3.569,0,0,1,1.574,1.011,3.948,3.948,0,0,1,.839,1.644,8.465,8.465,0,0,1,.226,2.094l-.006,3.181a8.513,8.513,0,0,1-.233,2.092,3.934,3.934,0,0,1-.846,1.642,3.578,3.578,0,0,1-1.577,1,6.915,6.915,0,0,1-2.161.3h-.028l-6.7-.012a6.945,6.945,0,0,1-2.2-.306,3.567,3.567,0,0,1-1.575-1.012,3.852,3.852,0,0,1-.831-1.65,8.765,8.765,0,0,1-.218-2.086l.006-3.182h0a8.813,8.813,0,0,1,.226-2.087,3.853,3.853,0,0,1,.838-1.645,3.56,3.56,0,0,1,1.58-1.007,6.924,6.924,0,0,1,2.174-.3Zm.154,2.664H190.4a4.444,4.444,0,0,0-.9.089,1.533,1.533,0,0,0-.6.257,1.185,1.185,0,0,0-.365.482,2.393,2.393,0,0,0-.158.954l-.009,4.372a2.374,2.374,0,0,0,.155.955,1.178,1.178,0,0,0,.365.484,1.508,1.508,0,0,0,.6.259,4.447,4.447,0,0,0,.918.091l6.379.012h.014a4.429,4.429,0,0,0,.9-.088,1.517,1.517,0,0,0,.6-.257,1.193,1.193,0,0,0,.367-.483,2.381,2.381,0,0,0,.158-.954l.009-4.372a2.381,2.381,0,0,0-.155-.955,1.185,1.185,0,0,0-.366-.484,1.5,1.5,0,0,0-.6-.259,4.5,4.5,0,0,0-.92-.093Z" transform="translate(-56.529 -69.934)" fill="#fefefe"/>
    <path id="Path_11" data-name="Path 11" d="M618.572,302.918l6.7.012a6.983,6.983,0,0,1,2.186.306,3.552,3.552,0,0,1,1.575,1.012,3.941,3.941,0,0,1,.838,1.643,8.534,8.534,0,0,1,.227,2.093l-.006,3.182a8.514,8.514,0,0,1-.234,2.092,3.933,3.933,0,0,1-.845,1.642,3.575,3.575,0,0,1-1.577,1,6.93,6.93,0,0,1-2.161.3h-.028l-6.7-.012a6.958,6.958,0,0,1-2.2-.306,3.584,3.584,0,0,1-1.574-1.011,3.854,3.854,0,0,1-.832-1.651,8.713,8.713,0,0,1-.217-2.087l.006-3.181a8.752,8.752,0,0,1,.224-2.088,3.855,3.855,0,0,1,.838-1.645,3.562,3.562,0,0,1,1.58-1.007,6.91,6.91,0,0,1,2.174-.3Zm.154,2.664h-.014a4.47,4.47,0,0,0-.9.088,1.518,1.518,0,0,0-.6.257,1.189,1.189,0,0,0-.367.483,2.39,2.39,0,0,0-.158.954l-.009,4.372a2.389,2.389,0,0,0,.155.955,1.18,1.18,0,0,0,.365.483,1.5,1.5,0,0,0,.6.26,4.449,4.449,0,0,0,.918.091l6.379.012a5.971,5.971,0,0,0,.921-.088,1.537,1.537,0,0,0,.6-.258,1.2,1.2,0,0,0,.365-.482,2.392,2.392,0,0,0,.158-.954l.009-4.372a2.374,2.374,0,0,0-.155-.955,1.2,1.2,0,0,0-.366-.484,1.5,1.5,0,0,0-.6-.259,4.442,4.442,0,0,0-.919-.092Z" transform="translate(-322.428 -69.934)" fill="#fefefe"/>
    <path id="Path_12" data-name="Path 12" d="M144.189,302.83l6.026.012a6.285,6.285,0,0,1,1.993.273,3.665,3.665,0,0,1,1.37.78,2.847,2.847,0,0,1,.769,1.219,4.345,4.345,0,0,1,.2,1.32l0,1a.688.688,0,0,1-.689.688h0l-1.381,0a.689.689,0,0,1-.688-.69v-.53a1.884,1.884,0,0,0-.138-.841.775.775,0,0,0-.3-.334,1.524,1.524,0,0,0-.579-.168c-.3-.028-.618-.045-.96-.046l-5.464-.01h-.014a4.364,4.364,0,0,0-.9.089,1.531,1.531,0,0,0-.606.257,1.181,1.181,0,0,0-.365.482,2.386,2.386,0,0,0-.159.954l-.009,4.372a2.373,2.373,0,0,0,.155.955,1.174,1.174,0,0,0,.365.484,1.506,1.506,0,0,0,.6.259,4.494,4.494,0,0,0,.918.092l5.512.009a8.355,8.355,0,0,0,1.194-.082,1.369,1.369,0,0,0,.555-.2.546.546,0,0,0,.2-.284,2.419,2.419,0,0,0,.094-.761l0-.725a.69.69,0,0,1,.689-.687h0l1.479,0a.689.689,0,0,1,.689.692l0,.786a6.5,6.5,0,0,1-.176,1.565,2.751,2.751,0,0,1-.783,1.352,3.47,3.47,0,0,1-1.5.782,8.374,8.374,0,0,1-2.153.229h-.019l-5.947-.012a6.914,6.914,0,0,1-2.2-.3,3.566,3.566,0,0,1-1.576-1.012,3.852,3.852,0,0,1-.831-1.65,8.784,8.784,0,0,1-.218-2.086l.006-3.182h0a8.794,8.794,0,0,1,.226-2.087,3.85,3.85,0,0,1,.838-1.645,3.557,3.557,0,0,1,1.58-1.007,6.96,6.96,0,0,1,2.187-.3Z" transform="translate(-27.928 -69.879)" fill="#fefefe"/>
    <path id="Path_13" data-name="Path 13" d="M316.717,303.481l2.121,0a.692.692,0,0,1,.491.206l4.835,4.913,4.855-4.9a.693.693,0,0,1,.49-.2h0l2.121,0a.69.69,0,0,1,.488,1.176l-6.482,6.5-.009,4.634a.689.689,0,0,1-.689.688h0l-1.575,0a.688.688,0,0,1-.689-.69l.009-4.634-6.456-6.529a.689.689,0,0,1,.49-1.174Z" transform="translate(-137.617 -70.283)" fill="#fefefe"/>
    <path id="Path_14" data-name="Path 14" d="M99.869,302.75l3.777.007a20.18,20.18,0,0,1,2.433.123,4.828,4.828,0,0,1,1.595.436,1.92,1.92,0,0,1,.961,1.018,3.505,3.505,0,0,1,.2,1.242v.4a.69.69,0,0,1-.689.687h0l-1.479,0a.69.69,0,0,1-.689-.689,1.44,1.44,0,0,0-.025-.3.865.865,0,0,0-.119-.046,4.994,4.994,0,0,0-1.139-.155q-.863-.05-2.381-.052l-1.671,0c-.738,0-1.361.016-1.879.051a3.32,3.32,0,0,0-1.045.209.674.674,0,0,0-.364.308,1.743,1.743,0,0,0-.14.81,2.449,2.449,0,0,0,.075.67.351.351,0,0,0,.151.2,1.528,1.528,0,0,0,.6.2,8.746,8.746,0,0,0,1.372.089l4.66.009a6.69,6.69,0,0,1,3.71.816,3.1,3.1,0,0,1,1.328,2.743v.755a3.667,3.667,0,0,1-.519,2.066,3.2,3.2,0,0,1-1.348,1.16,5.279,5.279,0,0,1-1.729.443c-.578.053-1.165.081-1.745.081h-.031l-4.6-.009c-.6,0-1.154-.022-1.667-.061a5.233,5.233,0,0,1-1.5-.323,2.577,2.577,0,0,1-1.17-.877,2.642,2.642,0,0,1-.445-1.591v-.419a.69.69,0,0,1,.689-.687h0l1.478,0a.69.69,0,0,1,.689.689v.193a.455.455,0,0,0,.025.186h0a.317.317,0,0,0,.1.052,2.2,2.2,0,0,0,.594.122c.313.032.7.047,1.165.048l4.885.009a6.421,6.421,0,0,0,1.3-.091,1.625,1.625,0,0,0,.633-.227.633.633,0,0,0,.231-.323,2.592,2.592,0,0,0,.108-.819,2.138,2.138,0,0,0-.082-.675.435.435,0,0,0-.161-.228,1.143,1.143,0,0,0-.489-.17,7.291,7.291,0,0,0-1.116-.073l-2.988-.006c-1.239,0-2.245-.036-3.077-.1a6.573,6.573,0,0,1-2.2-.5,2.756,2.756,0,0,1-1.4-1.347,4.917,4.917,0,0,1-.385-2.13,4.458,4.458,0,0,1,.369-1.918,2.936,2.936,0,0,1,1.169-1.281,4.8,4.8,0,0,1,1.755-.585,14.8,14.8,0,0,1,2.2-.141Z" transform="translate(0 -69.83)" fill="#fefefe"/>
    <path id="Path_15" data-name="Path 15" d="M274.754,303.4l13.339.025a.688.688,0,0,1,.689.691l0,1.285a.689.689,0,0,1-.689.687h0l-5.192-.01-.019,9.661a.688.688,0,0,1-.689.688h0l-1.576,0a.688.688,0,0,1-.688-.69l.019-9.661-5.192-.01a.687.687,0,0,1-.688-.691l0-1.285a.69.69,0,0,1,.689-.687Z" transform="translate(-111.565 -70.236)" fill="#fefefe"/>
    <path id="Path_16" data-name="Path 16" d="M664.212,303.331l2.346,0a.689.689,0,0,1,.477.193l9.471,9.12.017-8.6a.689.689,0,0,1,.689-.688h0l1.576,0a.688.688,0,0,1,.688.69l-.023,11.636a.689.689,0,0,1-.689.688h0l-2.346,0a.691.691,0,0,1-.477-.193l-9.472-9.12-.017,8.6a.689.689,0,0,1-.689.689h0l-1.574,0a.688.688,0,0,1-.688-.691l.022-11.635a.689.689,0,0,1,.689-.688Z" transform="translate(-353.331 -70.19)" fill="#fefefe"/>
    <path id="Path_17" data-name="Path 17" d="M232.838,303.326l13.339.024a.689.689,0,0,1,.688.691l0,1.285a.689.689,0,0,1-.689.687h0l-5.192-.01-.019,9.661a.689.689,0,0,1-.689.688h0l-1.575,0a.688.688,0,0,1-.688-.69l.019-9.661-5.192-.01a.688.688,0,0,1-.688-.691l0-1.285a.69.69,0,0,1,.689-.687Z" transform="translate(-85.543 -70.187)" fill="#fefefe"/>
    <path id="Path_18" data-name="Path 18" d="M569.952,303.154l9.3.017a8.639,8.639,0,0,1,2.2.236,3.292,3.292,0,0,1,1.487.8,2.73,2.73,0,0,1,.73,1.371,7.368,7.368,0,0,1,.149,1.587v.948a3.446,3.446,0,0,1-.21,1.271,2.319,2.319,0,0,1-.645.929c-.04.034-.082.068-.124.1a2.143,2.143,0,0,1,.3.323,2.481,2.481,0,0,1,.419.877,3.728,3.728,0,0,1,.108.92l-.006,2.971a.689.689,0,0,1-.689.689h0l-1.478,0a.689.689,0,0,1-.688-.69l0-2.556a2.331,2.331,0,0,0-.112-.834.669.669,0,0,0-.214-.31,1.031,1.031,0,0,0-.435-.154,6.219,6.219,0,0,0-.862-.058l-6.992-.013-.008,3.907a.69.69,0,0,1-.689.688h0l-1.574,0a.688.688,0,0,1-.688-.69l.023-11.635a.689.689,0,0,1,.689-.689Zm2.259,2.668-.006,3.09,6.865.013a.1.1,0,0,0,.019,0,2.848,2.848,0,0,0,1.507-.27c.075-.05.277-.182.278-.725l0-1.061a1.718,1.718,0,0,0-.078-.574.342.342,0,0,0-.162-.181,1.761,1.761,0,0,0-.632-.2,8.641,8.641,0,0,0-1.314-.083Z" transform="translate(-294.814 -70.08)" fill="#fefefe"/>
    <path id="Path_19" data-name="Path 19" d="M381.994,302.475l6.025.011a6.319,6.319,0,0,1,1.994.273,3.667,3.667,0,0,1,1.37.781,2.842,2.842,0,0,1,.768,1.218,4.323,4.323,0,0,1,.2,1.32l0,1a.689.689,0,0,1-.689.688h0l-1.382,0a.689.689,0,0,1-.688-.69v-.53a1.857,1.857,0,0,0-.138-.841.77.77,0,0,0-.3-.334,1.514,1.514,0,0,0-.578-.168c-.3-.028-.618-.045-.958-.045l-5.466-.011a3.636,3.636,0,0,0-.918.089,1.524,1.524,0,0,0-.6.256,1.2,1.2,0,0,0-.368.484,2.409,2.409,0,0,0-.157.953l-.009,4.372a2.381,2.381,0,0,0,.155.955,1.175,1.175,0,0,0,.365.483,1.505,1.505,0,0,0,.6.259,4.473,4.473,0,0,0,.918.092l5.512.011a5.367,5.367,0,0,0,1.194-.083,1.364,1.364,0,0,0,.557-.2.555.555,0,0,0,.2-.284,2.464,2.464,0,0,0,.095-.762v-.722a.688.688,0,0,1,.689-.689h0l1.479,0a.687.687,0,0,1,.688.691l0,.787a6.4,6.4,0,0,1-.177,1.565,2.73,2.73,0,0,1-.783,1.351,3.464,3.464,0,0,1-1.5.781,8.294,8.294,0,0,1-2.137.229h-.036l-5.946-.011a6.947,6.947,0,0,1-2.2-.306,3.577,3.577,0,0,1-1.573-1.01,3.861,3.861,0,0,1-.833-1.652,8.714,8.714,0,0,1-.218-2.087l.006-3.181a8.725,8.725,0,0,1,.226-2.087,3.854,3.854,0,0,1,.837-1.645,3.571,3.571,0,0,1,1.58-1.007,6.926,6.926,0,0,1,2.174-.3Z" transform="translate(-175.558 -69.659)" fill="#fefefe"/>
    <path id="Path_20" data-name="Path 20" d="M530.409,303.079l11.427.022a.688.688,0,0,1,.689.691l0,1.285a.69.69,0,0,1-.689.687h0l-9.162-.018,0,2.334,8.776.017a.69.69,0,0,1,.689.69l0,1.286a.688.688,0,0,1-.689.689h0l-8.776-.017-.006,2.687,9.226.018a.688.688,0,0,1,.688.691l0,1.285a.69.69,0,0,1-.689.687h0l-11.491-.022a.688.688,0,0,1-.688-.69l.022-11.636a.69.69,0,0,1,.689-.688Z" transform="translate(-270.265 -70.034)" fill="#fefefe"/>
    <path id="Path_21" data-name="Path 21" d="M470.523,302.967l2.459,0a.689.689,0,0,1,.565.3l6.215,8.955,6.25-8.932a.691.691,0,0,1,.564-.294h0l2.459,0a.689.689,0,0,1,.688.69l-.022,11.635a.689.689,0,0,1-.689.688h0l-1.575,0a.688.688,0,0,1-.689-.69l.016-8.063-5.881,8.445a.732.732,0,0,1-.568.3l-1.125,0a.69.69,0,0,1-.566-.3l-5.847-8.467-.016,8.064a.689.689,0,0,1-.689.688h0l-1.574,0a.688.688,0,0,1-.689-.69l.023-11.635a.688.688,0,0,1,.689-.689Z" transform="translate(-233.087 -69.964)" fill="#fefefe"/>
    <path id="Path_22" data-name="Path 22" d="M428.188,302.908l1.96,0a.688.688,0,0,1,.592.338l6.888,11.648a.689.689,0,0,1-.593,1.04h0l-1.784,0a.689.689,0,0,1-.594-.341l-1.242-2.121-8.533-.016-1.251,2.117a.792.792,0,0,1-.6.338l-1.784,0a.689.689,0,0,1-.59-1.042l6.934-11.623a.689.689,0,0,1,.592-.336Zm.974,3.331-2.705,4.557,5.394.011Z" transform="translate(-202.515 -69.928)" fill="#fefefe"/>
    <path id="Path_23" data-name="Path 23" d="M708.3,303.332a1.188,1.188,0,0,1,.464.1,1.215,1.215,0,0,1,.382.259,1.227,1.227,0,0,1,.257.383,1.2,1.2,0,0,1,0,.931,1.211,1.211,0,0,1-.641.637,1.162,1.162,0,0,1-.465.093,1.149,1.149,0,0,1-.467-.094,1.2,1.2,0,0,1-.637-.639,1.209,1.209,0,0,1,0-.932,1.2,1.2,0,0,1,1.107-.732Zm0,.227a.99.99,0,0,0-.69.283.99.99,0,0,0-.207.309.936.936,0,0,0-.077.378.954.954,0,0,0,.075.379.957.957,0,0,0,.516.518.986.986,0,0,0,.758,0,.951.951,0,0,0,.31-.207.966.966,0,0,0,.208-.309.951.951,0,0,0,.077-.378.978.978,0,0,0-.075-.38.963.963,0,0,0-.516-.518A.979.979,0,0,0,708.3,303.559Zm-.462.291.5,0a.662.662,0,0,1,.382.091.354.354,0,0,1,.13.308.321.321,0,0,1-.1.266.482.482,0,0,1-.26.1l.37.593H708.6l-.338-.584h-.2v.583h-.227Zm.227.188v.4h.272a1.047,1.047,0,0,0,.112-.006.266.266,0,0,0,.092-.028.151.151,0,0,0,.062-.063.238.238,0,0,0,.024-.11.162.162,0,0,0-.026-.1.173.173,0,0,0-.066-.058.264.264,0,0,0-.093-.028.831.831,0,0,0-.1-.007Z" transform="translate(-380.399 -70.191)" fill="#fefefe"/>
    <path id="Path_24" data-name="Path 24" d="M384.776,254.712a10.283,10.283,0,0,1,7.175,2.584,4.74,4.74,0,0,1-.013,7.016,10.364,10.364,0,0,1-7.2,2.539c-4.9-.023-8.736-2.706-8.725-6.107S379.877,254.7,384.776,254.712Zm-.012,3.59a6.668,6.668,0,0,0-4.643,1.5,1.461,1.461,0,0,0-.505.957,1.4,1.4,0,0,0,.492.978,7.918,7.918,0,0,0,9.294.031,1.484,1.484,0,0,0,.505-.967,1.5,1.5,0,0,0-.5-.971A6.7,6.7,0,0,0,384.764,258.3Z" transform="translate(-174.858 -40.007)" fill="#fefefe"/>
    <path id="Path_25" data-name="Path 25" d="M428.217,233.542a1.909,1.909,0,0,1,1.283.542,1.767,1.767,0,0,1,.51,1.248,1.8,1.8,0,0,1-.221.871l-6.121,10.884A1.8,1.8,0,0,1,422.1,248a1.781,1.781,0,0,1-.88-.229,1.817,1.817,0,0,1-.915-1.552,1.782,1.782,0,0,1,.24-.891s1.979-3.518,3.155-5.617c-1.9.99-5.658,2.944-5.658,2.944a1.714,1.714,0,0,1-.835.221,1.782,1.782,0,0,1-1.584-.963,1.791,1.791,0,0,1,.752-2.422l11-5.752C427.824,233.552,427.552,233.641,428.217,233.542Z" transform="translate(-199.322 -26.865)" fill="#fefefe"/>
    <path id="Path_26" data-name="Path 26" d="M346.557,233.542c.664.1.392.01.836.2l11,5.752a1.791,1.791,0,0,1,.752,2.422,1.782,1.782,0,0,1-1.584.963,1.714,1.714,0,0,1-.835-.221s-3.76-1.954-5.658-2.944c1.176,2.1,3.155,5.617,3.155,5.617a1.782,1.782,0,0,1,.24.891,1.817,1.817,0,0,1-.915,1.552,1.781,1.781,0,0,1-.88.229,1.8,1.8,0,0,1-1.565-.914L344.986,236.2a1.8,1.8,0,0,1-.221-.871,1.767,1.767,0,0,1,.51-1.248A1.91,1.91,0,0,1,346.557,233.542Z" transform="translate(-155.459 -26.865)" fill="#fefefe"/>
    <path id="Path_27" data-name="Path 27" d="M322.027,247.94a3.333,3.333,0,1,1-.023,6.665,3.291,3.291,0,0,1-3.317-3.333,3.341,3.341,0,0,1,.979-2.362A3.29,3.29,0,0,1,322.027,247.94Z" transform="translate(-139.269 -35.803)" fill="#fefefe"/>
    <path id="Path_28" data-name="Path 28" d="M465.722,247.94a3.29,3.29,0,0,1,2.361.97,3.343,3.343,0,0,1,.979,2.362,3.291,3.291,0,0,1-3.317,3.333,3.333,3.333,0,1,1-.023-6.665Z" transform="translate(-228.486 -35.803)" fill="#fefefe"/>
    <path id="Path_29" data-name="Path 29" d="M390.458,211.438a1.8,1.8,0,0,1,1.7,1.3l3.426,11.935a1.749,1.749,0,0,1-.148,1.36,1.794,1.794,0,0,1-1.085.857,1.731,1.731,0,0,1-.489.067,1.8,1.8,0,0,1-1.721-1.293s-1.169-4.077-1.76-6.134c-.633,2.055-1.893,6.138-1.893,6.138a1.782,1.782,0,0,1-1.725,1.261,1.757,1.757,0,0,1-.521-.076,1.8,1.8,0,0,1-1.183-2.243l3.667-11.9A1.81,1.81,0,0,1,390.458,211.438Z" transform="translate(-180.428 -13.142)" fill="#fefefe"/>
    <path id="Path_30" data-name="Path 30" d="M454.394,217.8a3.29,3.29,0,0,1,2.361.97,3.341,3.341,0,0,1,.979,2.362,3.291,3.291,0,0,1-3.317,3.333,3.333,3.333,0,1,1-.023-6.665Z" transform="translate(-221.453 -17.093)" fill="#fefefe"/>
    <path id="Path_31" data-name="Path 31" d="M333.355,217.8a3.333,3.333,0,1,1-.023,6.665,3.291,3.291,0,0,1-3.317-3.333,3.343,3.343,0,0,1,.979-2.362A3.29,3.29,0,0,1,333.355,217.8Z" transform="translate(-146.302 -17.093)" fill="#fefefe"/>
    <path id="Path_32" data-name="Path 32" d="M359.962,197.678a3.333,3.333,0,1,1-.023,6.665,3.291,3.291,0,0,1-3.317-3.333,3.341,3.341,0,0,1,.979-2.362A3.29,3.29,0,0,1,359.962,197.678Z" transform="translate(-162.82 -4.6)" fill="#fefefe"/>
    <path id="Path_33" data-name="Path 33" d="M427.786,197.678a3.29,3.29,0,0,1,2.361.97,3.341,3.341,0,0,1,.979,2.362,3.291,3.291,0,0,1-3.317,3.333,3.333,3.333,0,1,1-.023-6.665Z" transform="translate(-204.935 -4.6)" fill="#fefefe"/>
    <path id="Path_34" data-name="Path 34" d="M393.87,190.268a1.625,1.625,0,0,1,.465.044.7.7,0,0,1,.333.069,1.556,1.556,0,0,1,.563.2,2.49,2.49,0,0,1,.993.658,2.746,2.746,0,0,1,.673,1.036c.167.4.125.233.176.491a.989.989,0,0,1,.092.463.587.587,0,0,1,.017.17l.02.2a3.291,3.291,0,0,1-3.317,3.333h-.039a3.291,3.291,0,0,1-3.317-3.333l.02-.2a.574.574,0,0,1,.017-.17.983.983,0,0,1,.092-.463c.052-.259.009-.09.176-.491a2.578,2.578,0,0,1,.674-1.036,2.658,2.658,0,0,1,.992-.658,1.558,1.558,0,0,1,.563-.2.7.7,0,0,1,.333-.069,1.622,1.622,0,0,1,.465-.044h.007Z" transform="translate(-183.87)" fill="#fefefe"/>
  </g>
</svg>
